<svg id="Layer_1" data-name="Layer 1" xmlns="http://www.w3.org/2000/svg" viewBox="0 0 1080 1080"><defs><style>.cls-1,.cls-15,.cls-33{fill:#e0f2fb;}.cls-10,.cls-11,.cls-18,.cls-19,.cls-2,.cls-20,.cls-23,.cls-31,.cls-35,.cls-6,.cls-7{fill:none;}.cls-11,.cls-12,.cls-16,.cls-17,.cls-2,.cls-22,.cls-25,.cls-27,.cls-28,.cls-32,.cls-4,.cls-8{stroke:#1d1d1b;}.cls-10,.cls-12,.cls-15,.cls-19,.cls-2,.cls-21,.cls-22,.cls-24,.cls-28,.cls-33,.cls-34,.cls-4,.cls-6,.cls-7,.cls-9{stroke-miterlimit:10;}.cls-3{fill:#ffe109;}.cls-13,.cls-21,.cls-25,.cls-29,.cls-32,.cls-34,.cls-4,.cls-9{fill:#fff;}.cls-5{fill:#e2cce4;}.cls-35,.cls-6{stroke:#d44190;}.cls-18,.cls-19,.cls-31,.cls-33,.cls-34,.cls-7{stroke:#fff;}.cls-11,.cls-13,.cls-14,.cls-16,.cls-17,.cls-18,.cls-19,.cls-20,.cls-21,.cls-23,.cls-25,.cls-27,.cls-29,.cls-31,.cls-32,.cls-35,.cls-8{stroke-linecap:round;}.cls-11,.cls-13,.cls-14,.cls-16,.cls-17,.cls-18,.cls-20,.cls-23,.cls-25,.cls-27,.cls-29,.cls-31,.cls-32,.cls-35,.cls-8{stroke-linejoin:round;}.cls-10,.cls-13,.cls-14,.cls-15,.cls-20,.cls-21,.cls-23,.cls-24,.cls-9{stroke:#000;}.cls-12,.cls-17{fill:#1d1d1b;}.cls-16{fill:#fdfdfd;fill-opacity:0.2;}.cls-16,.cls-31,.cls-33,.cls-35{stroke-width:2px;}.cls-22{fill:#000100;}.cls-23{stroke-width:0.5px;}.cls-26{fill:#d44190;}.cls-27{fill:#020202;}.cls-28,.cls-30{fill:#050506;}.cls-29{stroke:#050506;}.cls-32{fill-opacity:0.4;}</style></defs><title>Featured article image (Team Work)</title><rect id="BG" class="cls-1" x="-0.93" y="-0.93" width="1080.93" height="1080.93"/><path class="cls-2" d="M595.59,932.49c74.12,69.75,184.34,98.83,283.22,74.71,21.62-5.27,43.54-13.46,58.66-29.79s21.36-42.58,9.33-61.31c-13.24-20.61-42.33-24.47-66.25-19.17-32.27,7.17-64.49,33.88-61.22,66.77,1.91,19.12,15.49,35.37,31.46,46.06,38,25.43,93.22,22.78,126.87-8.12s40.35-87.87,12.79-124.3c-16.58-21.92-42.84-35.09-69.83-40.21-52.42-9.93-111.07,11.5-139.8,56.45s-21.23,111.39,20.5,144.63c15.16,12.07,33.58,19.5,52.41,24.08,49.4,12,103.9,4.42,146.45-23.41s71.77-76.22,73.46-127-25.55-102.32-70.05-126.91c-39-21.57-85.78-21.77-129.28-31.5-50.65-11.33-100.2-38.3-126.64-83S724.36,562,763.5,527.88c34.34-29.92,85.47-30.67,130-20.94,43.28,9.47,90.19,26.88,129.77,6.95,32.85-16.54,49.78-56.65,45.11-93.14s-27.91-68.73-57.21-91C974.44,302,924.28,288.13,881.28,304.6c-34.7,13.29-59.82,43.63-91.74,62.63a158,158,0,0,1-120.66,16.55c-25.32-6.85-52.3-26.27-49.75-52.39,1.38-14,11.12-25.69,21-35.78a370.21,370.21,0,0,1,31.48-28.7c5.63-4.57,11.54-9.05,18.42-11.34,9.15-3,19.09-1.92,28.71-1.16,26.14,2.08,52.41,1.21,78.6,0,40.1-1.84,80.51-4.51,119.17-15.3s75.86-30.34,101.65-61.1c16.81-20.05,27-52.87,7.64-70.42-10.17-9.18-25.74-10.54-38.71-6.13s-23.7,13.73-32.84,23.94"/><rect id="Frame_BG" data-name="Frame BG" class="cls-3" x="-0.93" y="-0.93" width="476.81" height="1079.91"/><rect id="Anh" class="cls-4" x="471.48" y="27.04" width="418.61" height="387.19"/><path class="cls-5" d="M473,307.8H652.46a15.82,15.82,0,0,0,15-10.92l77-237.14a15.81,15.81,0,0,0-15-20.69H550.06A15.82,15.82,0,0,0,535,50L458,287.11A15.8,15.8,0,0,0,473,307.8Z"/><path class="cls-6" d="M681.84,90.76c-10.63,0-10.63-10-21.27-10s-10.63,10-21.26,10-10.63-10-21.27-10-10.63,10-21.27,10-10.63-10-21.26-10-10.64,10-21.27,10-10.64-10-21.27-10-10.64,10-21.27,10-10.64-10-21.28-10-10.64,10-21.27,10"/><path class="cls-6" d="M651.61,131.54c-10.63,0-10.63-10-21.27-10s-10.63,10-21.26,10-10.63-10-21.27-10-10.63,10-21.26,10-10.64-10-21.27-10-10.64,10-21.27,10-10.64-10-21.27-10-10.64,10-21.27,10-10.64-10-21.28-10-10.63,10-21.27,10"/><path class="cls-6" d="M631.86,172.32c-10.63,0-10.63-10-21.27-10s-10.63,10-21.26,10-10.63-10-21.27-10-10.63,10-21.26,10-10.64-10-21.27-10-10.64,10-21.27,10-10.64-10-21.27-10-10.64,10-21.27,10-10.64-10-21.28-10-10.63,10-21.27,10"/><path class="cls-6" d="M610.29,213.09c-10.63,0-10.63-10-21.26-10s-10.64,10-21.27,10-10.63-10-21.27-10-10.63,10-21.26,10-10.64-10-21.27-10-10.64,10-21.27,10-10.64-10-21.27-10-10.64,10-21.27,10-10.64-10-21.28-10-10.63,10-21.27,10"/><path class="cls-6" d="M591.26,253.87c-10.63,0-10.63-10-21.27-10s-10.63,10-21.26,10-10.63-10-21.27-10-10.63,10-21.26,10-10.64-10-21.27-10-10.64,10-21.27,10-10.64-10-21.27-10-10.64,10-21.27,10-10.64-10-21.28-10-10.63,10-21.27,10"/><rect id="LA" class="cls-4" x="27.04" y="27.04" width="418.61" height="387.19"/><polygon class="cls-3" points="50.87 97.29 322.94 243.12 50.87 243.12 50.87 97.29"/><line class="cls-7" x1="90.85" y1="118.72" x2="50.87" y2="118.72"/><line class="cls-7" x1="137.57" y1="143.76" x2="50.87" y2="143.76"/><line class="cls-7" x1="176.61" y1="164.69" x2="50.87" y2="164.69"/><line class="cls-7" x1="223.32" y1="189.72" x2="50.87" y2="189.72"/><line class="cls-7" x1="260.43" y1="209.61" x2="50.87" y2="209.61"/><line class="cls-7" x1="297.01" y1="229.22" x2="50.87" y2="229.22"/><polygon class="cls-1" points="86.92 44.4 358.99 190.23 86.92 190.23 86.92 44.4"/><path class="cls-8" d="M240.16,111.11c-25.34-.28-49.29,19.62-54.07,44.51-4.37,22.77,5.25,48.58-6.87,68.34-4.83,7.87-12.51,13.51-20.19,18.64-11.69,7.8-24,15-33.75,25.13S108.42,291.6,110,305.57c2.29,20.19,21.33,34.17,40.09,42,10.67,4.44,22,7.78,33.5,8.13,24.15.73,46.87-11.56,65.9-26.45,6.14-4.8,12.17-10,19.41-12.83,14.42-5.68,30.55-1.16,45.72,2s32.9,4.11,44.17-6.53c11.85-11.2,11.06-30.8,4.15-45.57s-18.63-26.71-27.22-40.58-13.9-31.74-6.6-46.33c2.22-4.44,5.51-8.34,7.22-13,2.41-6.62,1.33-14.1-1.28-20.65a48,48,0,0,0-31.22-28c-13.88-3.87-24.76.13-37.41,5.24-4.68,1.89-2.27,2-5.24-1.1-1.77-1.85-2.62-4.08-4.8-5.75C251.9,112.59,245.72,111.17,240.16,111.11Z"/><path class="cls-9" d="M118.7,370.83c4.84,10.81,14.41,19,25.06,24.2a92.57,92.57,0,0,0,18.17,6.43c5.25,1.33,10.59,2.34,15.92,3.24q6.65,1.11,13.32,2,11.07,1.5,22.22,2.41,11,.9,22,1.22a422.86,422.86,0,0,0,59-2.37q11.91-1.29,23.72-3.29a231.21,231.21,0,0,0,23.42-5c3.56-1,7.07-2.08,10.52-3.33a100.9,100.9,0,0,0,20.51-10c.35-.22.7-.45,1-.69,15.7-10.53,28-27.45,28.9-46.3.42-9-1.72-17.86-4.3-26.46-4-13.25-9.1-26.32-17.12-37.6-7.19-10.11-16.87-18.74-28.33-23.36q-2-.81-4-1.44a65,65,0,0,0-12.18-2.41L336,248c-15.15-1.54-41.15.49-55.39-4.31l-29.2-1.4c-13.31,4.57-35,12.1-48.88,14q-3.12.44-6.22,1.06A113.34,113.34,0,0,0,173,264.63c-19,8.25-35.71,21.72-46.2,39.53a88.65,88.65,0,0,0-12.19,43.43C114.48,355.51,115.46,363.59,118.7,370.83Z"/><path class="cls-10" d="M336,248a65.19,65.19,0,0,1-26.38,21.8c-15.8,7.3-33.64,9.06-51,8.5-18.11-.58-36.67-3.76-52.07-13.32a80.55,80.55,0,0,1-10.2-7.59"/><path class="cls-10" d="M352.76,251.83C344.7,263.6,332.88,273,319.84,279c-19.71,9.11-42,11.31-63.68,10.61-22.6-.73-45.75-4.7-65-16.63a99.74,99.74,0,0,1-12.73-9.46"/><path class="cls-8" d="M337.68,383.91c.36,5.42,1.11,11.15,3.8,15.75,3.56-1,7.07-2.08,10.52-3.33.85-5.06.28-10.41-.53-15.54-2.76-17.66-8-35.42-5.35-53.09.75-4.93,2.21-9.74,5.61-13.48,1.49-1.65,7.2-4.05,7.79-6.07,2.09-7.14-10.92-2.08-13.53,1.37-3.15,4.17-4.08,9.56-4.84,14.74C338.25,344,336.34,364,337.68,383.91Z"/><path class="cls-8" d="M186.11,321.38c2.26,1.07,4.51-2.68,7.78-.82,2.45,1.39,3.45,5.61,3.66,8.17,1.64,19.08-5.11,37.79-7.46,56.81-.88,7.07-1.12,14.4,1.08,21.17q11.07,1.5,22.22,2.41c-.94-1.9-2.17-3.69-3.29-5.5a62.42,62.42,0,0,1-9.19-35.8c.7-13.73,6-27.12,5-40.83-.47-6.87-3.62-14.71-10.33-16.26C190.48,309.57,178.08,317.59,186.11,321.38Z"/><path id="face" class="cls-9" d="M288.73,247.2c-19,11.1-45.06,3.5-59.37-13.22-21.4-25-29.22-80,11.71-88.43,17.24-3.57,39.47-1.45,56.25,3.29,22.87,6.47,19.34,17.56,16.56,37C310.6,208.88,311.89,233.68,288.73,247.2Z"/><path id="bang" class="cls-8" d="M211,164.19c1.79-6.22,3.78-12.72,8.39-17.26,3.72-3.68,8.75-5.67,13.68-7.42,4.55-1.61,9.21-3.12,14-3.36,8.57-.43,11.77,2.63,11.9,7.21.95,0,1.95,0,3,.07,13.46.76,26.51,2.88,40.1,2.62,5-.1,10.05-.33,14.77,1.21s9.08,5.32,9.71,10.25c.64,5.11-3,10-7.59,12.32s-10,2.4-15.13,1.94C288,170.35,273,164,259.19,156.05c-1.25-.71-2.36-1.4-3.35-2.07a81.48,81.48,0,0,1-14.55,19.44c-8.52,7.94-19,15.1-30.6,15a1.57,1.57,0,0,1-1.87-1.42C206.76,179.52,208.85,171.62,211,164.19Z"/><path class="cls-11" d="M310.36,184.73a23.94,23.94,0,0,0-12.58-1.06c-4.71.88-9,3.15-13.14,5.63"/><path class="cls-11" d="M253.08,192.82a16.14,16.14,0,0,0-10.27-2.56,35.36,35.36,0,0,0-10.41,2.64c-2.64,1-5.32,2.24-7.25,4.32"/><path class="cls-11" d="M277,191.59c-1.09,6.84,1,13.79,3.88,20.12a16.19,16.19,0,0,1,1.32,3.62,7.45,7.45,0,0,1-7.35,8.82"/><path class="cls-11" d="M285.18,231.11c-3.07,2.73-7.52,3.18-11.63,3A56.21,56.21,0,0,1,258,231.42"/><path class="cls-11" d="M279.59,237.37a16.44,16.44,0,0,1-11.11-.35"/><path class="cls-11" d="M249.4,197.58A14.71,14.71,0,0,0,239,196.4a28.62,28.62,0,0,0-6.39,2.81l-3.67,2"/><path class="cls-11" d="M308.78,190.61a14.68,14.68,0,0,0-10.35-1.18,29.33,29.33,0,0,0-6.4,2.8l-3.66,2"/><circle class="cls-8" cx="300.88" cy="193.72" r="4.37"/><circle class="cls-8" cx="241.69" cy="200.41" r="4.37"/><g id="Anh_image" data-name="Anh image"><path class="cls-7" d="M542.6,316.09C617,272.45,692.8,228.32,776.74,215"/><path id="hair" class="cls-12" d="M653.69,76.86c11.58-10.3,18.08-3.62,27-7s4.89-15.74,30.63-23.4c18.08-3.83,25.1,6,33,7.66s10.85-2.77,18.3.42,4,17.23,12.34,25.1,26.8.85,25.52,39.78c-1.27,19.36,2.77,26,13,30.42S828.13,171.1,826,185.56s-11.27,24-1.7,33.83S568,281.29,568,281.29s-5.1-20,19.57-29.57-7-16.8-9.36-35.31,21.91-22.34,32.34-31.49-6.81-22.33,29.35-38.07c23.62-10.64,7.87-32.77,7.24-47.23S650.63,79.58,653.69,76.86Z"/><path class="cls-13" d="M854.13,299.85c-1.72,10.52-10.87,27.08-11.32,27.59,2.37-1.79,3,1,3.15,1.75l0,.17c-2.18,8.75-7.88,13.68-14.13,17.5-12,7.34-26,10.63-21,29.09a111.34,111.34,0,0,1,2.38,13.35c.12.84.23,1.71.34,2.61.78,6.28,1.54,13.84,2.22,22.32H791.26a5.23,5.23,0,0,1-2.55.66h-2.82a5.27,5.27,0,0,0-5.27,5.27v2.69a5.26,5.26,0,0,1-5.27,5.27h-.16a5.27,5.27,0,0,0-5.42,4.93c0,.68-.1,1.38-.15,2.08a5.27,5.27,0,0,1-7.38,4.45C751.1,434.64,740.61,422,735,414.23h-36.3L698.25,340l-.13-21.91h0L698,287.72l0-2v-2.49s0,0,0,0l0-6.63L697.81,264V262.4l0-8v-.34l0-6.94-.05-9.44v-1.21l0-4.94s1.12-.72,3.11-1.95l3.42-2.1c3.7-2.24,8.77-5.25,14.63-8.54l.22-.12c21.25-11.94,52.76-27.55,67.65-24.63a46.52,46.52,0,0,1,4.62,1.15c11.25,3.37,21.58,10.6,29.22,17.78h0c7.06,6.63,11.82,13.21,12.9,16.65,2.39,7.66-.16,11.17,3.66,15.79s7.18,21.86,9.26,31.91c1.2,5.86-.46,12-1.64,15.13C847.55,289,855.76,290,854.13,299.85Z"/><path class="cls-12" d="M739,265.6c0,1.11,0,2.22,0,3.32-.23,44.81-8.73,89.34-11.35,134h0c-.21,3.77-.39,7.54-.51,11.3H698.68L698.25,340l-.13-21.91h0L698,287.72l0-2v-2.49s0,0,0,0l0-6.63L697.81,264V262.4l0-8v-.34l0-6.94-.05-9.44v-1.21l0-4.94s1.12-.72,3.11-1.95l3.42-2.1c3.7-2.24,8.77-5.25,14.63-8.54l.22-.12a28.91,28.91,0,0,1,9.4,7.23,37,37,0,0,1,6.4,10.49,49.88,49.88,0,0,1,2.64,9c.33,1.66.59,3.34.8,5a119,119,0,0,1,.76,13C739,264.24,739,264.92,739,265.6Z"/><path class="cls-13" d="M720.28,242.57s0,1.47-.14,4.08q0,.76-.06,1.65c0,.39,0,.8,0,1.22,0,.83-.06,1.72-.1,2.67-.06,1.86-.14,3.95-.22,6.24,0,.73-.06,1.49-.09,2.26,0,1.39-.1,2.84-.16,4.34s-.11,2.83-.16,4.31l-.06,1.47c0,.4,0,.79,0,1.19,0,.91-.08,1.84-.11,2.78-.09,2.33-.19,4.75-.29,7.22-1.16,29-2.83,65.54-4.28,78.64q-.42,6.44-.69,12.47h0c-.74,15.48-.85,29-.57,41.11H694.15a151.06,151.06,0,0,1,0,21.3,5.48,5.48,0,0,1-8.74,4.07,5.52,5.52,0,0,0-5.15-.73l-6.21,2.28a5.5,5.5,0,0,1-6.25-1.8l-2.4-3.1a5.47,5.47,0,0,0-5.33-2.05l-5.08.91a5.51,5.51,0,0,1-5.47-2.23l-3.56-5a5.54,5.54,0,0,0-4.5-2.32h-6.83a5.52,5.52,0,0,1-5.36-4.24l-1.43-6.09a5.15,5.15,0,0,0-.32-1H591.45c2.16-12,4-20.7,4.86-24.79h0c.37-1.72.58-2.63.58-2.63s-20.42,3-30.42-2.34c-4.85-2.58-12.15-8.55-18.54-15.72h0c-6.77-7.63-12.52-16.59-13.21-24.26-1-10.91,2.7-7.43,4-5.9-6.64-8.23-3.47-15-1.15-22.18,1.34-4.14,2.75-2.7,3.55-1.2-4.3-10.88-2.81-13.5,5.81-26,4.55-6.61,7.73-6.32,9.4-5-2.1-4.82-2.65-13.36,3.79-19.21,6.8-6.18,13.59-11.76,29.08-31.23l1.55-2a87.15,87.15,0,0,1,23.08-24.67A100.29,100.29,0,0,1,662,189l.85-.05,1.55,1.45a0,0,0,0,1,0,0l8.89,8.29,7.66,7.15,6.63,6.18,12.68,11.84,3.89,3.63,5.12,4.77,4.5,4.2h0l4.66,4.35,1.71,1.6Z"/><g id="scalf"><path class="cls-13" d="M780.62,187.26l-16.31,4.56L709,207.26s-9.52-2.71-20.57-6.63c-18.33-6.51-40.89-16.36-31.34-22.73,15.32-10.21,27.66-30.21,27.66-30.21s28.07.48,50,.55c14.1.06,25.69,0,25.69-.55-1,10.83,5.6,22.06,11.49,29.77A87.22,87.22,0,0,0,780.62,187.26Z"/><path class="cls-14" d="M772,177.46a70,70,0,0,1-7.66,14.36L709,207.26s-9.52-2.71-20.57-6.63a6.24,6.24,0,0,1,.57-3.43c1.79-3.64,6.52-4.33,10.34-5.67,10-3.5,16-13.49,21-22.86,3.91-7.39,8.11-15.26,14.45-20.43,14.1.06,25.69,0,25.69-.55C759.51,158.52,766.08,169.75,772,177.46Z"/><path class="cls-15" d="M832.3,364.21a5.28,5.28,0,0,1-3,7.91l-2.43.68a5.27,5.27,0,0,0-3.8,5.82l.66,4.61.38,2.66a5.27,5.27,0,0,1-5.22,6h-5.61a5.27,5.27,0,0,0-5.27,5.27v1.58a5.28,5.28,0,0,1-5.27,5.28h-3.45a5.27,5.27,0,0,0-5.27,5.27v.3a5.29,5.29,0,0,1-5.28,5.28h-2.82a5.27,5.27,0,0,0-5.27,5.27v2.69a5.26,5.26,0,0,1-5.27,5.27h-.16a5.27,5.27,0,0,0-5.42,4.93c0,.68-.1,1.38-.15,2.08a5.27,5.27,0,0,1-7.38,4.45C751.1,434.64,740.61,422,735,414.23c-.36-.48-.69-1-1-1.39l0,0c-1.15-1.63-2-2.94-2.59-3.79-.23-.35-.46-.7-.68-1.06,0,0,9.43-13.94,21.65-30.36,1.89-2.54,3.85-5.14,5.85-7.76q1.47-1.95,3-3.89,2.83-3.68,5.75-7.3c2.1-2.63,4.21-5.21,6.31-7.7.78-.94,1.56-1.86,2.33-2.76l.09-.09,1.32-1.54c12.38-14.21,23.49-24.2,27.7-20.24v0l0,0q1.24,1.22,2.61,2.43c3,2.64,6.29,5.28,9.61,7.75,1.76,1.32,3.53,2.59,5.23,3.79,3.5,2.45,6.75,4.59,9.22,6.18a4.41,4.41,0,0,1,.49.36,5.28,5.28,0,0,1,.94,7.18l-1.61,2.21a5.27,5.27,0,0,0-.18,5.92Z"/><path class="cls-13" d="M796.8,357.2l-2.64.66a6,6,0,0,0-4.53,6.58l.24,2a6,6,0,0,1-6,6.77h-.77a6,6,0,0,0-6,6v2.2a6,6,0,0,1-6.22,6l-2.82-.09A6,6,0,0,0,762,392.1l-1.27,5.72a6,6,0,0,1-5.9,4.72h-1.87a6,6,0,0,0-6,6v.27a6,6,0,0,1-6,6H738.5a6.09,6.09,0,0,1-5-2.63c-14.93-21.66-25.18-51.74-32.09-79.81a560.4,560.4,0,0,1-11.73-65.19c-.93-7.76-1.3-12.34-1.3-12.34l7.21-.63c22.09-1.89,87.36-7.53,87-7.88.11,6.15.45,11.92,1,17.3,3.48,36.77,15.33,56,23,64.87a6,6,0,0,1-2.57,9.61h0a6,6,0,0,0-3.86,7.1l1.12,4.63A6.06,6.06,0,0,1,796.8,357.2Z"/><path class="cls-14" d="M783.56,263.71c-17.29,7-36.76,5.28-55.46,4.92-6.36-.13-14,.6-17,6.19-2.28,4.17-.93,9.39,1.13,13.68s4.86,8.39,5.45,13.12c1,7.57-3.9,14.51-8.51,20.6l-7.73,10.23a560.4,560.4,0,0,1-11.73-65.19,121.14,121.14,0,0,1,5.91-13c22.09-1.89,87.36-7.53,87-7.88C782.71,252.56,783.05,258.33,783.56,263.71Z"/><path class="cls-15" d="M694.17,435.53a5.48,5.48,0,0,1-8.74,4.07,5.52,5.52,0,0,0-5.15-.73l-6.21,2.28a5.5,5.5,0,0,1-6.25-1.8l-2.4-3.1a5.47,5.47,0,0,0-5.33-2.05l-5.08.91a5.51,5.51,0,0,1-5.47-2.23l-3.56-5a5.54,5.54,0,0,0-4.5-2.32h-6.83a5.52,5.52,0,0,1-5.36-4.24l-1.43-6.09a5.15,5.15,0,0,0-.32-1,5.49,5.49,0,0,0-4.91-3.28c-1.61,0-3.45-.07-5.09-.08a5.51,5.51,0,0,1-5.43-4.85,114.17,114.17,0,0,1,.67-33.1c.48-2.85,1-5.32,1.53-7.34a58.15,58.15,0,0,1,1.94-6.43l6.46,2.72L689,389.78l2.2,8.72a66.94,66.94,0,0,1,2.95,15.73A151.06,151.06,0,0,1,694.17,435.53Z"/><path class="cls-13" d="M641.35,234.92S595.48,287.35,613,363.27a4.92,4.92,0,0,0,5.57,3.75l3-.48a4.93,4.93,0,0,1,5.18,2.66l.85,1.69a4.9,4.9,0,0,0,4.4,2.72h.34a4.91,4.91,0,0,1,4.74,3.61l.83,3a4.92,4.92,0,0,0,4.74,3.61h3.46a4.91,4.91,0,0,1,4.84,4.05l.54,3a4.92,4.92,0,0,0,5.71,4l2.4-.43a4.92,4.92,0,0,1,5.67,3.8h0a4.92,4.92,0,0,0,6.19,3.68l1.55-.45a4.91,4.91,0,0,1,5.56,2.13l.3.47a4.92,4.92,0,0,0,7.66.89l3.18-3.17a5,5,0,0,0,1.43-3.29c.4-10,2.71-55.93,11.42-69.56,9.78-15.31-6-34.46-4.68-45.95s19.78-31.48,19.78-31.48Z"/><path class="cls-13" d="M711.13,199.6s-31.91-29.35-60.42-18.29-6.38,53.61-6.38,53.61Z"/><path id="scalf_2" data-name="scalf 2" class="cls-13" d="M761.33,147.27s-27.65,14-35.74,25.95c-8.28,12.21-12.76,27.66-34.88,31.06-13.93,2.14-38.72,5.11-51.06,27.66-6.81,13.61,38.72,34,77,33.18s83.81-11.48,82.11-34S793.1,190.67,780.62,183s-15-15.74-15-20A30.25,30.25,0,0,0,761.33,147.27Z"/></g><path class="cls-13" d="M741.88,361.05s14.51,30.22,34.1,34.05,45-5.74,57.82-21.06,33.26-40.4,3.26-48.6c-8.93-3.09-38.07-2.48-43,21.05C787.92,360,741.88,361.05,741.88,361.05Z"/><path id="face-2" data-name="face" class="cls-4" d="M677.2,92c0,12.76-5.43,54.57,14.36,72.75s29.35,29.36,57.43-2.87c14-16.59,17.55-16.27,14.36-69.88,1-16.91-39.25-23.61-39.25-23.61l-33.5,8.93Z"/><path class="cls-12" d="M742.61,82.23s-2.71,24.25-57.43,20.42c-6.23-.64,9.57-8,9.41-11.33,0-1.26-19.05,1.06-18.7,14.59a1.26,1.26,0,0,1-2.31.75L663,90.84l47.7-22.17,41.17,2.71L772,91.48l-6.54,14.68s.64-9.57-5.75-12.6S750.43,90.84,742.61,82.23Z"/><g id="glass"><path class="cls-16" d="M674.43,107.16A25.67,25.67,0,0,0,668.11,124a25.68,25.68,0,1,0,49.74-9h0a24.68,24.68,0,0,0-3.36-6.21"/><path class="cls-16" d="M773.65,124a25.69,25.69,0,1,1-45.8-16c12.49-1.85,25.8-6.58,32.47-4a27.11,27.11,0,0,1,8.47,4.92c.52.73,1,1.48,1.45,2.25A25.53,25.53,0,0,1,773.65,124Z"/><path class="cls-17" d="M770.24,110.14c0,.54-.26.93-1,1.12-3,.8-12.12-4-19.45-4-6.76,0-13.94,4-25.62,6-1,.16-2,.31-3.11.43s-2.21.22-3.23.26c-11.15.5-16-3.82-29.63-2.66-10.78.93-15.07.1-16.56-1.35a2.2,2.2,0,0,1-.68-1.83s-.5-1.43,3.46-2a37.32,37.32,0,0,1,6.75-.2c9.32.4,21.4,1.8,33.3,1.87,2.38,0,4.73,0,7.07-.12,2.05-.09,4.16-.32,6.3-.63,12.49-1.84,25.8-6.58,32.47-4a27.11,27.11,0,0,1,8.47,4.92A4.15,4.15,0,0,1,770.24,110.14Z"/></g><g id="face2"><path class="cls-11" d="M733.89,119.19s14.89-7,25.74,0"/><path class="cls-11" d="M707.51,120.47s-12.76-7-25.1-2.84"/><g id="eye2"><path class="cls-11" d="M737.08,127.27s9.15-6.38,17.66,0"/><path class="cls-11" d="M741.76,130.46a15.35,15.35,0,0,0,8.3,0"/><circle class="cls-17" cx="745.91" cy="127.27" r="2.84"/></g><g id="eye2-2" data-name="eye2"><path class="cls-11" d="M686.13,127.27s9.15-6.38,17.66,0"/><path class="cls-11" d="M690.81,130.46a15.35,15.35,0,0,0,8.3,0"/><circle class="cls-17" cx="694.96" cy="127.27" r="2.84"/></g><path class="cls-11" d="M717,135s-9.83,24.12,2.45,21.73"/><path class="cls-11" d="M708.27,160.3s10.05,6.22,19.3,0"/><path class="cls-11" d="M713.69,165.19a13.28,13.28,0,0,0,8.46,0"/></g><ellipse class="cls-12" cx="671.49" cy="283.46" rx="6.81" ry="24.34" transform="translate(-55.37 337.59) rotate(-27.15)"/><path class="cls-14" d="M725.69,242.17c.53.52.35,4.17,0,6.6s-1.39,8-1.39,8a34.41,34.41,0,0,1-2.95,3.65c-.7.52,1,7.12,1.56,8.34a4.58,4.58,0,0,1-1.72,5.39c-2.27,1.56-26.08,2.61-26.08,2.61l6.25-33.37Z"/><g id="mic"><path class="cls-14" d="M698.67,204.46S707.45,312,708,314.82s7.47,3.47,8.51,0S719,204.46,719,204.46Z"/><rect class="cls-13" x="695.8" y="171.49" width="26.07" height="38.23" rx="9.15"/><path class="cls-14" d="M721.87,181.52V199.7a10,10,0,0,1-2.87,7H698.67a10,10,0,0,1-2.87-7V181.52a9.91,9.91,0,0,1,1-4.28,82.12,82.12,0,0,0,24-.25A10,10,0,0,1,721.87,181.52Z"/><path class="cls-18" d="M706.85,302.84a38.71,38.71,0,0,0,10.28-.23"/><path class="cls-18" d="M707.13,306.08a41.41,41.41,0,0,0,9.89-.23"/><path class="cls-18" d="M707.34,308.42a39.46,39.46,0,0,0,9.58-.25"/><path class="cls-18" d="M707.64,311.66a41.39,41.39,0,0,0,9.13-.25h0"/><path class="cls-19" d="M695.86,180.44h0c4.67,1.25,13.24,2.42,25.94,0"/><path class="cls-19" d="M695.8,185.35c4.66,1.25,13.27,2.46,26.07,0"/><path class="cls-19" d="M695.8,190.28c4.66,1.24,13.27,2.45,26.07,0"/><path class="cls-19" d="M695.8,195.2c4.66,1.25,13.27,2.46,26.07,0"/><path class="cls-19" d="M695.81,200.13c4.66,1.24,13.28,2.45,26.05,0"/></g><g id="hand"><path id="thumb" class="cls-15" d="M717.71,236.87s-2.6-5.82,0-7.73,6.07,8,4.16,9.73S717.71,236.87,717.71,236.87Z"/><path class="cls-15" d="M658.84,266.91s14.83-16.92,18.08-18.54,6.72-2.09,10.66-4.64,6.95-8.57,27.11-7.18c12.74,1.16,13.21,3,12.51,5.79s-3.71,4.18-8.34,4.41-11.59,0-12.75,1.16,3,2.08,18.54-.24c6-.69,8.57,7.88.46,9.27s-8.11,4.17-13.67,4.41,7.65-.24,13.44-1.39,7,8.11.23,9.5-11.81,3-14.36,3.47,10.89-1.62,12.28-.92,3.94,6-.23,8.11a72.87,72.87,0,0,1-20.63,6.95c-8.8,1.39-14.13,2.08-19.46,1.39s-10,7.88-10,7.88S654.63,291.67,658.84,266.91Z"/><path class="cls-20" d="M672.73,261.58s4.19-14.39,11.38-16"/></g><ellipse class="cls-12" cx="774.22" cy="361.05" rx="32.34" ry="10.12"/><path class="cls-13" d="M660.39,261.8S563.07,311.4,549,343.57s24.25,59.83,42.12,49.62,63.35-74.87,91.45-88.07C682.6,305.12,658.52,287.19,660.39,261.8Z"/><g id="hand-2" data-name="hand"><path class="cls-21" d="M736,344.83c-1.15-2.48,3.3-3.84,5.65-2.36s3.21,6.6,6.08,8.6,4.17,3.48,6,3.91,6.08,3.57,6.08,3.57-8.89,4.86-18.62-10.69C739,345.25,737.85,348.75,736,344.83Z"/><path class="cls-15" d="M812.42,347.27s-3.9-.09-6.68,6-11.24,8.93-18.89,10.42-33.13,6.48-44.14-4.87c-3.59-3.12-6.6-12.74-6.69-14s2.87-1.34,4.75.86,7.16,9.81,11.67,11.78c-.13-.07-4.86-14.4-5.34-15.61s6.08-4,7.28-1.9,4.78,14.62,7.45,16.36-4-11.55-5.69-15,5.57-3.44,5.57-3.44l8.23,8.46L788.48,352l7.3-7.17h12.28Z"/><path class="cls-21" d="M746.62,340.65c.2,2.35,4.66,4.83,8.59.72.28-.55.28-4.89-3.9-5C748.62,336.47,746.36,337.6,746.62,340.65Z"/><path class="cls-21" d="M784.31,349.15c5.21-1.68,5.79-9.75,18.3-9.52,2.09,0,3.48-3.71,12.75-3.24s6.95,6.49,5.33,8.34-7.88,2.78-12.75,2.78-10.19-3.2-11.35-1.14,1.16,6.7-3.48,6.93-15.29-5.56-18.07-5.09-8.81,2.13-9-1.84,3.48-3.49,7.18-2.57S778.51,351,784.31,349.15Z"/><path class="cls-21" d="M766,344.83s-2.54-9.37-9.49-3.81c-2.09,2.32-4.17-4.63,1.16-5.79s8.24,5.61,9.42,8.42C767.2,343.57,766,344.83,766,344.83Z"/></g></g><rect class="cls-4" x="539.54" y="438.93" width="418.62" height="387.19"/><g id="T_shirt_full" data-name="T/shirt full"><path class="cls-13" d="M861.92,710.49h0c-15.82,6.51-43.7,3.3-90.62-27.58,0,0,4,79.62,5.47,143.21H548.83c1.8-54.79,9.16-115.39,5.06-117-1.41-.56-6.57.31-14.35,1.58V627.19q3.57-1.47,7-3,4.65-2.09,9.4-3.86c34.07-12.77,69.7-14,69.7-14s.44-16,10.39-14c0-.31-4-12.36-4.26-20.1h0c-.08-2.38.19-4.33,1-5.43,3.67-4.67,69.56,0,69.56,0a44.33,44.33,0,0,1,2.58,5.54,39.3,39.3,0,0,1,2.54,9.82,18.77,18.77,0,0,1-1.88,11.33c.48-.19,10,5.62,10,12.55,0-1.19,32-13.4,70-9.68,9.45.93,19.64,5.76,29.71,12.66,2.64,1.81,5.27,3.76,7.87,5.82h0a212.31,212.31,0,0,1,17.78,15.9,335.32,335.32,0,0,1,30.78,35.39c3.81,5.07,6.44,8.93,7.55,10.83C882.38,682.39,880.27,703,861.92,710.49Z"/></g><path class="cls-22" d="M707.47,582.14a32.74,32.74,0,0,1-2.58,2.29c-4.32,3.44-9.3,6-13.65,9.39-3.77,3-7,6.56-11.1,9.13s-9.25,4-13.65,2.09c-3.76-1.64-6.13-5.31-8.82-8.42s-6.54-6-10.55-5.08c-6.41,1.44-7.09,10.2-10.77,15.64-3.1,4.59-8.69,6.89-14.16,7.72s-11.05.46-16.56,1a51.35,51.35,0,0,0-22.86,7.9c-3.51,2.27-6.91,5-11,5.79-6.26,1.16-12.7-3-15.57-8.65-.09-.19-.19-.38-.27-.57,34.07-12.77,69.7-14,69.7-14s.44-16,10.39-14c0-.31-4-12.36-4.26-20.1h0c-.08-2.38.19-4.33,1-5.43,3.67-4.67,69.56,0,69.56,0a44.33,44.33,0,0,1,2.58,5.54A39.3,39.3,0,0,1,707.47,582.14Z"/><path class="cls-22" d="M861.92,710.49h0c-15.82,6.51-43.7,3.3-90.62-27.58,0,0,4,79.62,5.47,143.21H693.86c2.42-.84,4.85-1.63,7.31-2.36,9.59-2.86,20.66-5.82,25-14.83,4.27-8.78.07-19.31,1.51-29,1.81-12.13,12-21,18.94-31a65.47,65.47,0,0,0,11.52-39.81c-.39-9.22-2.75-18.36-2.17-27.57.23-3.69,1-7.58,3.64-10.23,5.38-5.52,14.68-2.73,21.46.94a144.35,144.35,0,0,1,18.5,11.93c4.92,3.74,11.89,7.86,16.64,3.89,2.64-2.21,3.14-6.2,2.26-9.53s-2.9-6.24-4.61-9.23c-7.37-12.9-9.16-28.67-5.62-43a68.2,68.2,0,0,1,6.94-17.3c2.64,1.81,5.27,3.76,7.87,5.82h0a212.31,212.31,0,0,1,17.78,15.9,10.18,10.18,0,0,1-2.44,4.37,4.18,4.18,0,0,0-1.38,2,3.3,3.3,0,0,0,.9,2.37c8.64,11.49,23.41,16.66,33.7,26.65,3.81,5.07,6.44,8.93,7.55,10.83C882.38,682.39,880.27,703,861.92,710.49Z"/><path id="ear_1" data-name="ear 1" class="cls-13" d="M713.17,526s3.54-2.54,5.12-2.28,2.15,21.33-6.44,28.88"/><path id="face-3" data-name="face" class="cls-9" d="M710.38,503.31s10.28,21.06,0,55.23-31.62,37.75-31.62,37.75c-19.38,1.19-46.66-17.88-58.52-39.74L608.38,534.7S634.08,496.15,710.38,503.31Z"/><g id="face-4" data-name="face"><path class="cls-20" d="M656.37,532.11c-1.34.3-7.86-.59-13.49.6s-10.08,7-10.08,7"/><path class="cls-20" d="M684.09,528.09s9.19-7.15,24.76-2.83"/><path class="cls-14" d="M689.43,538.79s4.45-9.84,17.94-3.88C708.56,535.81,699.51,530.89,689.43,538.79Z"/><path class="cls-14" d="M657.55,539.71s-17.69-1.8-21,8.65C635.91,549.85,645.1,539.56,657.55,539.71Z"/><ellipse class="cls-14" cx="702.34" cy="537.85" rx="4.47" ry="4.49"/><ellipse class="cls-14" cx="653.09" cy="544.21" rx="4.47" ry="4.49"/><path class="cls-20" d="M680.41,530.26s7.9,22.9,8.89,26.87-3.95,6.75-8.89,7"/><path class="cls-20" d="M686.86,573.44s-5.73,6.55-16.8,1.19"/></g><g id="hat"><path class="cls-14" d="M713.17,496s-9.69-49.12-68.7-34-34.9,79.75-34.9,79.75S646.37,495.06,713.17,496Z"/><path class="cls-13" d="M721.26,498.34c0,7.75,3.36,16.09-10.68,13.11s-63.26-1.64-85.4,25a32.51,32.51,0,0,0-4.94,20.09s-15.81-8.34-15.22-20.66,24.41-32.38,51.35-40.33c24.46-7.22,50.77-4.44,62.24-2.68a3.19,3.19,0,0,1,2.69,3.26C721.26,497.28,721.26,498.34,721.26,498.34Z"/><path class="cls-20" d="M712.56,511.82a53.45,53.45,0,0,0-.71-19.84"/><path class="cls-20" d="M705.26,510.7a38,38,0,0,0-2.58-19.52"/><path class="cls-20" d="M695.16,510.34A43.21,43.21,0,0,0,693,490.85"/><path class="cls-20" d="M686.22,510.75a51.93,51.93,0,0,0-3.57-19.6"/><path class="cls-20" d="M677.68,511.7c0-6.61-2-14.86-3.39-19.78"/><path class="cls-20" d="M668.46,513.36c-2.15-6.93-2.62-15.93-2.72-20.08"/><path class="cls-20" d="M654.94,496c.25,3.94,1.16,12.87,4.32,19.73h0"/><path class="cls-20" d="M649.52,519.26c-4.35-7.08-5-15.12-5-19.35"/><path class="cls-20" d="M636.06,504a48.67,48.67,0,0,0,3.54,20.28"/><path class="cls-20" d="M629.78,531.63a47,47,0,0,1-5.47-20.21"/><path class="cls-20" d="M614.05,520.2h0c.9,4.34,3.1,11.31,8.41,21.52"/><path class="cls-20" d="M620.25,551.09a57.22,57.22,0,0,1-14-20.05"/></g><g id="ear2"><path id="ear2-2" data-name="ear2" class="cls-13" d="M624.31,544.21s-4.39-8.06-10.26-3.15,8.05,20,13,25.72"/><path class="cls-23" d="M623.14,546.35l-.5-.89a8,8,0,0,0-2-2.58,2.38,2.38,0,0,0-3.79,2.77,7.85,7.85,0,0,0,1.89,2.72,7.9,7.9,0,0,1,1.9,2.7c.52,1.49.14,3.24.9,4.62.86,1.57,2.87,2.11,4,3.47"/></g><path class="cls-14" d="M856.41,583s-42.7-4.57-36.47,8.35S854.23,597.86,856.41,583Z"/><g id="hand-3" data-name="hand"><path class="cls-24" d="M815.6,539.9l2.74-2.95a7.59,7.59,0,0,0,1.78-7.06,13.22,13.22,0,0,1-.45-2.5c0-1.64-3.94,1.35-4.92.61s2.82-5.68-1.48-7.47,3.2-10,3.2-10,8.95-3.25,10.29-3.1a5.65,5.65,0,0,1,2.37.89v2.21l6.82,3.16,11.42,26.22-19.43,27.27-12.34-8.64Z"/><path class="cls-9" d="M827.75,599.06s-2.38-19.47-11.27-28.41-11.27-24.24-12.06-28-3.76-12.51-3.76-16.68,2.77-6.56,2.77-8.55,0-5.56,1.38-6.75,7.12,6.16,7.12,6.16-.39,7-.79,9.73,3,9.93,4.74,12.12,9.79,3,14.66,21.06c4.52,16.69,8.67,36.75,8.67,36.75Z"/><g id="pen"><polygon class="cls-3" points="804.88 499.17 817.73 511.09 809.42 516.26 800.92 505.83 804.88 499.17"/><path class="cls-24" d="M804.88,499.17c.79.4,1.78,2.29,0,4.67s-3.07,2.19-4,2-1.58-6.66-1.58-6.66Z"/></g><path class="cls-9" d="M819.94,508.39s-.89-3.43-5.64-3.5-7.34,1.85-7.41,2.52c-.15,2.84,7.27,3.14,7.27,3.14Z"/><path class="cls-9" d="M823.89,561.81c.2-18,19.67-22,19.67-22l-2.67.2c-2.67.2-8-1.19-7.71-5.16a31.71,31.71,0,0,1,2.28-8.65c-2.08,3.48-6.92,2.69-6.92,2.78-3.56,5.77-6.53,8.15-7.91,8.05s-1.48-3.18-.1-7.85,3.36-6.85,8.6-7.94,5.14-5.67,5.14-5.67c-2.77,5.67-7.12,2.29-8.8,3.08s-6,6-8.79,8.45-4.16-.8-2.57-4.17c4.84-9.84,9.88-11.33,12.55-12.12s2.27-2.29.2-1.69c-8.9,2.48-11.27,9.63-12.56,11.62s-4.74,2-5.63.35,2.82-7.15,5.49-10.58,11.56-4.17,14.08-4,1.63,2.84,1.63,2.84c3.11-.9,4.89-.3,7.56,3.57s7.56,16.39,11,19.67-2.23,20.86-3,24.59-2.23,10.13,0,14.45S852.55,591,852.55,591l-13.34,5.46"/></g><path class="cls-13" d="M856.41,583s15.42,47.09,20.76,65,4.74,52.94,0,58.66-27.88,7.5-38-9.79S823.4,612,819.94,591.31C817.86,582.37,846.92,603.82,856.41,583Z"/><rect id="Ken_BG" data-name="Ken BG" class="cls-3" x="105.64" y="349.26" width="473.25" height="437.72"/><rect id="Ken" class="cls-4" x="106.17" y="373.83" width="420.11" height="388.58"/><path id="bicep2" class="cls-25" d="M287.55,691.43S238.47,735.66,221.19,739c-17.35,4,42.88-92.42,42.88-92.42Z"/><path id="arm" class="cls-25" d="M168.6,626.32S205,744.54,233.5,732.8s-19-82.92-39.19-116C193.93,616,168.6,626.32,168.6,626.32Z"/><path class="cls-26" d="M234,660.44a200.24,200.24,0,0,0,71.44-66.85q4.56-7.07,8.45-14.35a199.25,199.25,0,0,0,17.4-44.48,201.29,201.29,0,0,0-85.73-219.55l-4,6.23L209.7,370.68h0l-14.81,22.94-10.53,16.29a88.57,88.57,0,0,1,26.36,122.5l-1,1.46a88.69,88.69,0,0,1-88.94,37.73h0a88.47,88.47,0,0,1-32.6-12.84l-2.78,4.3L38.33,636h0L27,653.47A200.76,200.76,0,0,0,92.78,681,202.09,202.09,0,0,0,234,660.44Z"/><path class="cls-7" d="M209.75,533.88l63.1,29.86c13.24,6.27,26.74,12.61,41,15.5"/><path class="cls-7" d="M120.81,571.61h0c1.54,3.83,2.89,7.74,4.25,11.6,13.18,37.3,33,76.22,67.23,94.53"/><path class="cls-7" d="M168.2,567c3.47,3.46,6.94,6.85,10.27,10.18A292.89,292.89,0,0,1,227,641.38a60.08,60.08,0,0,1,7,19.06"/><path class="cls-7" d="M45.32,664a242.56,242.56,0,0,1-7-28h0"/><path class="cls-7" d="M85.43,563.07a365.34,365.34,0,0,0,6.51,66.48c2.47,12.82,5.63,25.8,4.18,38.79A44.59,44.59,0,0,1,92.78,681"/><path class="cls-7" d="M302.59,370.76a22.48,22.48,0,0,1-8.69,5.31c-9.79,3.14-20.37.73-30.44-1.3-17.64-3.54-36-5.84-53.76-4.09h0"/><path class="cls-7" d="M194.88,393.63c7.76,7.72,20.49,12.67,31.7,15C261.8,416,299,420,331.35,434.45"/><path class="cls-7" d="M264.42,329c-7.59-2.62-15.28-5.05-22.91-7.57"/><path class="cls-7" d="M224.37,494c33.72,15.35,70.57,25.11,104.8,39.86l2.1.92"/><path class="cls-7" d="M221.92,461.63c35-.77,71.61,11.3,106.84,18.3,2.91.59,5.9,1.13,8.87,1.46"/><path id="bicep" class="cls-4" d="M566.47,689s8.26,58-1.24,82.93-75.85-37.73-75.85-37.73l-6.06-41.89Z"/><path class="cls-25" d="M431,596.34a111.47,111.47,0,0,1-28.13-7.48c-30.79-12.5-51-35.07-53.17-37.62l-.2-.24.19,0c2.12-.49,21.83-5,31.2-5.49a11,11,0,0,0,6-2.57c8-6.21,15.23-22.8,14.35-40.27-1.1-21.84,73,0,73,0s-14.87,33.72-5.78,43.12,21.2,10.23,27.25,14.1S479.46,602.42,431,596.34Z"/><path class="cls-27" d="M495.7,559.85C476.14,579.43,432.78,590,405.16,589c-.76,0-1.53-.06-2.29-.1-11.39-.59-22.89-2.55-32.84-8.07-10.62-5.9-19.25-16.46-20.27-28.6,0-.32-.05-.63-.06-1a2.53,2.53,0,0,1,0-.28c2.12-.49,21.83-5,31.2-5.49a11,11,0,0,0,6-2.57,26.57,26.57,0,0,0,3.46,5.5c8.19,9.59,19.68,17,32,19C468.17,574.78,476.29,564.69,495.7,559.85Z"/><path class="cls-22" d="M399.33,475.26s-.82-16.87,1.93-19.91,2.2-12.16,2.2-17.69,3-9.12,5.24-11.89.27-10.23,2.2-13.27,8.26-3.59,12.11-9.67,13.77-10.78,20.93-7.74,9.09-1.39,16,.27,6.88,7.19,11.29,7.19,11.29-.83,14.87,2.21,5.23,8.3,9.63,8.57,11.29,3.6,14.32,14.1,1.38,11.89,0,16,.83,18-8.26,26.54-21.2,11.34-21.2,11.34Z"/><g id="Ears"><path id="ear_2" data-name="ear 2" class="cls-2" d="M476.43,498.48a9.05,9.05,0,0,0,9.64,1.1c5.78-2.49,4.95-10.5,8.53-13.54s10.47-7.74,8.54-13.55-14.59-1.69-14.87-1.68S476.43,498.48,476.43,498.48Z"/><path class="cls-11" d="M487.58,481.34s6.2-4.49,8.88-3.87-.62,2.76-1.44,3.87-4.35,5.25-5.07,8.36-7.12,5.6-8.15,2.28S487.58,481.34,487.58,481.34Z"/><path id="ear_1-2" data-name="ear 1" class="cls-2" d="M404.57,432.12s-3.1-.94-3.52,5.62,0,20.65,0,20.65l7.85-5Z"/></g><path id="face-5" data-name="face" class="cls-4" d="M404.57,454.8c-6.34,14.1-17.08,40.64,8.81,70.22,10.46,13.26,53.69-9.4,60.57-18S497.63,468.9,499,452.59s-10.74-26.54-33.87-33.18-42.68-12.71-49.56,3.32A251.65,251.65,0,0,0,404.57,454.8Z"/><g id="eyebrows"><path class="cls-11" d="M460.53,456.94c2.48-1,7.23-3.32,15.49-1.24a21.56,21.56,0,0,1,12.18,8.08"/><path class="cls-11" d="M442.77,451.34c-1.24-2.28-6.2-7-11.15-9.95s-12.81-2.9-15.49-1.45"/></g><g id="eyes"><ellipse class="cls-28" cx="469" cy="471.39" rx="3.58" ry="3.59"/><ellipse class="cls-28" cx="423.98" cy="455.73" rx="3.58" ry="3.59"/><path class="cls-2" d="M461.56,467.79a10.89,10.89,0,0,1,9.71,0,15.81,15.81,0,0,1,6.81,7.19"/><path class="cls-2" d="M433.27,459.32a15.36,15.36,0,0,0-7.92-7.19,13.42,13.42,0,0,0-9.77,0"/><ellipse class="cls-4" cx="468.57" cy="469.56" rx="1.25" ry="1.26"/><ellipse class="cls-4" cx="423.17" cy="454.01" rx="1.25" ry="1.26"/></g><path class="cls-11" d="M449.72,452.45c.14,2.9-2.75,13.27-6.47,17.42s-7.71,7.87-6.88,10.5a6.72,6.72,0,0,0,6.62,4.7"/><g id="mouth"><path class="cls-11" d="M419.56,495.36a24,24,0,0,0,11.29,7,24.37,24.37,0,0,0,14.59-.55"/><path class="cls-11" d="M425.62,502.4a11.93,11.93,0,0,0,4.68,2.35,9.26,9.26,0,0,0,5.26,0"/></g><path class="cls-17" d="M489.09,481.47c-16,4.57-25,17.42-29.46,16.89s-3.71-3.34-9.91-5.41-11.56,3-15.14,2.07-4.82-4.7-9.92-7.32-14.72,2.2-13.76-9.82-7.9-19.49-7.9-19.49c-3.87,5.53-4.91,15.76-6.14,22.12s-2.48,41.6,20.23,48.93,45.85-13.41,55.35-21.28S490.75,480.79,489.09,481.47ZM450,503.89c-.22,1.59-1.87,2.49-3.35,3.1a67.1,67.1,0,0,1-12.48,3.73c-2.85.57-5.84.94-8.62.1-4.24-1.28-7.22-5.12-9.18-9.1a9.58,9.58,0,0,1-1.3-5.86c1.85-9.81,14.52,1.82,18.43,2.63s7.82-1.28,11.56-.24a7.35,7.35,0,0,1,4.37,3.39A3.56,3.56,0,0,1,450,503.89Z"/><path id="T_shirt" data-name="T/shirt" class="cls-25" d="M519.66,711.61c-11.5.87-16.89,1-19.34.79a7.32,7.32,0,0,1-1.53-.21c.17,1.45.61,5.52,1.13,11h0c1.56,16.41,3.81,45.51,1.29,55-3.58,13.55-50.94,22.66-84.53,22.12s-78.75-9.13-85.08-13.55c-6.1-4.26,7.95-124.23,11.72-140.16-2.82,6.52-11.79,23.33-28.24,32.07-23.41,12.44-27.53,12.71-27.53,12.71s-15.7-16-17.35-19.07S250.37,642,250.37,642s72.69-86.8,94.45-91,27.8-3.59,27.8-3.59S391.9,574,423.56,575.6s48.53-4.22,58.13-21.32c.25-.52,47.61,14.69,66.33,29.34s20.1,102.84,22.3,107.26S545.27,709.68,519.66,711.61Z"/><path class="cls-11" d="M361.08,548.3c6.37,10.29,25.55,34.86,64.54,37.26,41.77,2.57,57.68-15.39,63.76-29"/><path class="cls-17" d="M506.31,658.09c-1.73,7.13-4.47,14-5.75,21.24-1.91,10.87-.42,22-.24,33.07a7.32,7.32,0,0,1-1.53-.21c.17,1.45.61,5.52,1.13,11h0c0,.25-.05.49-.08.74-4-17.09-3.61-34.86-3.2-52.4q.32-13.53.64-27.07c.08-3.22.15-6.46.53-9.65.69-5.74,8.34.79,9.14,3.94C508.57,645,507.83,651.88,506.31,658.09Z"/><path class="cls-29" d="M429.67,589.8c1.11,3-3.18,3.43-7,3.31a45.31,45.31,0,0,1-5.21-.48l-13.33-31.92a7.79,7.79,0,0,1,0-2.11,2.38,2.38,0,0,1,1.23-2C407.15,555.88,416.41,559.54,429.67,589.8Z"/><path class="cls-30" d="M422.69,593.11a45.31,45.31,0,0,1-5.21-.48l-13.33-31.92a7.79,7.79,0,0,1,0-2.11,9.57,9.57,0,0,1,3.2,3.38l9.81,19A96.25,96.25,0,0,1,422.69,593.11Z"/><polygon class="cls-5" points="464.25 699.36 392.38 729.6 392.38 729.61 321.91 759.26 313 737.92 298 702 288.99 680.41 273.32 642.88 254.85 598.65 239.36 561.55 289.59 540.41 348.03 515.82 381.7 501.64 400.83 547.47 422.57 599.53 434.81 628.83 446.34 656.46 464.25 699.36"/><g id="pattern"><path class="cls-31" d="M348,515.82c4.36,8.29,5,19.23,3.57,28.82a99.59,99.59,0,0,1-28.93,56.12c-15.58,15.08-36.2,25.1-49.35,42.12"/><path class="cls-31" d="M254.85,598.65a115.14,115.14,0,0,0,27.62-39.19c2.65-6.21,4.77-12.7,7.12-19.05"/><path class="cls-31" d="M313,737.92c13.16-5.24,23.85-16.73,33.63-27.54,21.17-23.42,43-46.42,67.21-66.63a143.53,143.53,0,0,1,21-14.92"/><path class="cls-31" d="M392.38,729.61h0c11.44-27.6,34.33-49.42,54-73.15"/><path class="cls-31" d="M298,702c30.57-43.52,89-63,124.57-102.47"/><path class="cls-31" d="M289,680.41a23.52,23.52,0,0,0,3-1.49c6.24-3.63,10.88-9.43,15.36-15.1l78.12-98.75a191.17,191.17,0,0,1,15.34-17.6"/></g><path class="cls-29" d="M417,636.07l0,.08,1.28,3.08c1.09,2.62,4.71,5.29,6.81,5.39a1.43,1.43,0,0,0,1.14-.35,1.45,1.45,0,0,0,.3-.39c1-1.75,0-5.73-1.21-6.77s6.36-9.8,9.44-9.42a5.48,5.48,0,0,1,4.67,5.16c-.12,1.73-8.23,17.3-6.21,23.16,1.85,5.32,12,8.2,18.74,10.69.68.26,1.32.5,1.91.75,6.71,7.8,33.51,65.45,40.12,78.45s29.73,40.08,47.63,44.5c7.15,1.76,11.44,2,14.28,1.07,4.27-1.37,5.26-5.32,7.74-10.47,4.13-8.57,2.76-21.56-5.78-35.1s-73.79-74.09-80.67-81.84-15.42-24.32-17.31-29.9c-2.42-7.16-11.42-28-16.5-33.86s-19.59-16.92-21.8-17.53-4.17.36-6.63,2.79-9.81,9.86-11.77,14.18-.31,16.91.48,18.81c.72,1.72,4,.55,6.16-1.8a8.8,8.8,0,0,0,.69-.8c2.14-2.86,1.32-8.52,1.58-10.88s7.16-8.88,8.75-8.71,3.08,7.37,3.08,7.37-.45,0-1.18,0h0c-2.37.08-7.5.75-8.35,4.85-1.1,5.35-5.3,20-6.46,23.55s.07,6.82.91,8.84,4.24,2.13,6.79-.07a4.2,4.2,0,0,0,1.37-4.75"/><path class="cls-30" d="M426.47,603.13a3.08,3.08,0,0,1-3.65.6c.72,0,1.17,0,1.17,0s-1.47-7.21-3.07-7.37-8.48,6.36-8.76,8.71.56,8-1.58,10.88a8.8,8.8,0,0,1-.69.8,42.56,42.56,0,0,1,1.54-11,29.28,29.28,0,0,1,1.38-4.05c1.3-3.16,4.55-5,7.66-6.39a4.44,4.44,0,0,1,1.69-.49,4.21,4.21,0,0,1,2.12.79C427.51,597.58,430,599.77,426.47,603.13Z"/><path class="cls-30" d="M439,610.69s-12.28,3.91-15.15,6.38-9,18.87-9.39,20.86-.64,4.63.22,4c5.58-4.31,4.78-18.64,11.52-22.18s12.71-5.91,13.9-6.41S443.18,610.33,439,610.69Z"/><path class="cls-22" d="M556,791.47c-2.84.92-7.13.69-14.28-1.07-17.9-4.42-41-31.51-47.63-44.5s-33.41-70.65-40.12-78.45c-.59-.25-1.23-.49-1.91-.75-6.75-2.49-16.89-5.37-18.74-10.69-2-5.86,6.09-21.43,6.21-23.16a5.48,5.48,0,0,0-4.67-5.16c-3.08-.38-10.75,8.3-9.44,9.42s2.22,5,1.21,6.77a24,24,0,0,0-.66-3.06c-.56-2-2.08-3.9-2.1-6,0-2.56,2.46-4.34,4.65-5.64a20.88,20.88,0,0,1,6.28-2.87,7.1,7.1,0,0,1,6.46,1.55c1.69,1.68,2,4.3,1.87,6.69-.46,6.71-4.2,13-3.93,19.71a4.1,4.1,0,0,0,.57,2.21,4.8,4.8,0,0,0,2.45,1.44,62,62,0,0,1,14.48,7.33,17.85,17.85,0,0,1,3.44,2.86,21.42,21.42,0,0,1,2.41,3.61l15.26,26.65C488.26,716.69,545.48,773.16,556,791.47Z"/><rect id="Sollie_" data-name="Sollie&apos;" class="cls-4" x="27.04" y="667.37" width="418.61" height="387.19"/><g id="Sollie_pic" data-name="Sollie pic"><path id="shirt" class="cls-9" d="M211.61,830.87S236,824,253.81,852.44c9.6,15.22,7.61,48,17.54,62.53s31.1,50.3,32.75,71.47-2,32.42-29.44,30.44S81.44,1035.74,55.3,1037.39,34.12,1005,42.06,974.53s16.55-63.19,21.84-87,20.29-32.42,47.2-43S163.49,825,163.49,825Z"/><path class="cls-8" d="M106.73,908.18c1.77-.2,3.78,0,5,1.37a5.26,5.26,0,0,1,.68,4.78c-1.23,4.67-5.38,8.09-6.82,12.69a23.54,23.54,0,0,0-.77,6.32l-.25,8c-.73.59-1.78-.12-2.37-.85a13.89,13.89,0,0,1-1.25-15.05c1.41-2.54,3.68-4.76,4-7.64.32-3.1-1.84-5.34-4.2-6.92C101.42,909,104.8,908.39,106.73,908.18Z"/><path class="cls-8" d="M48.69,1014.89c9.11-6.48,21.07-7.63,30.54-13.56,2.42-1.51,4.87-3.76,4.78-6.61s-2.93-5.08-5.79-5.41-5.68.74-8.3,1.94c-6.47,3-31.48,18.46-26.3,27.94A54.82,54.82,0,0,1,48.69,1014.89Z"/><path class="cls-8" d="M245.05,905.18c.38,9.91,6.18,18.78,8.23,28.48a7.86,7.86,0,0,1,.11,3.85,3.12,3.12,0,0,1-2.74,2.37c-2.12,0-3.14-2.56-3.58-4.64l-2.49-11.74c-1.12-5.28-2.24-10.65-1.84-16,.35-4.53,2-10.26,5.83-13A15.26,15.26,0,0,0,245.05,905.18Z"/><path id="neck" class="cls-25" d="M207.49,815.72s16.55,22.5-13.56,23.49-50-23.49-50-23.49l13.89-21.84Z"/><path id="face-6" data-name="face" class="cls-25" d="M226.8,803.62s-17.32,29.8-34.69,24.84-44.67-32.76-44.67-32.76V760.88l41.69-33.17,26.8,2,16.87,13.9S233.91,786.25,226.8,803.62Z"/><path class="cls-11" d="M213.94,785.61s3.52,2.06,10.28,1.44"/><path class="cls-11" d="M191,784s-9.93,3.15-15.88-1.15"/><path class="cls-11" d="M192.27,778.35s-6.94-10.54-23.49-2.88"/><path class="cls-11" d="M212.62,780.65s6.52-6.36,14.18-1.69"/><path class="cls-11" d="M205.18,782.8s16.63,35.73-6.33,29"/><path class="cls-11" d="M202.94,817a8.22,8.22,0,0,1-9.34-1.16"/><path id="hair-2" data-name="hair" d="M209.48,742.6c-5-3.48-17.37-9.93-22.83-3.48s0,24.82-10.42,30.77-23.33,5.46-24.32,14.89,20.35,36.73-3,47.65C134,840.37,126.1,819.52,115.18,817S99.3,827,81.44,820,60.1,792.76,59.1,785.3s1-15.9,11.42-23.84-2-15.39,7-28.79,24.31,5.46,40.19-5,2.49-37.22,42.19-40.2c25.31-2,32.75,10.42,32.75,10.42s19.86-7.94,37.72,11.42,21.77,46.71,12.34,59.11,1.47,32.76,4.28,39.07c9.84,22.08-11.49,31-27.54,26.69-16.36-4.4-6.64-15.77.31-26.69s14.58-45.08,10.12-60S209.48,742.6,209.48,742.6Z"/><g id="eyeglass"><circle class="cls-32" cx="224.94" cy="784.65" r="22"/><circle class="cls-32" cx="176.85" cy="785.53" r="22"/><path class="cls-11" d="M198.85,786.77s3.75-2.74,4.19,0"/></g><path id="t-shirt" class="cls-25" d="M211.61,830.87s-13,17-54.69-3.55c-5.65,2-12.95,19.17-12.95,19.17l35.4,70.14,12.79,28.78,17.32-49.63,7.94-38.37v-22.5Z"/><g id="colars"><path class="cls-8" d="M211.61,830.87s7.79-3.51,12.59-.23-2.81,4.6,6.45,10.88S234,866.34,223.37,871s-10.25,19.85-7.94,28.79-16.54,36.72-24.15,49.29,3.64-32.09,7.61-44.33S219.69,844.05,211.61,830.87Z"/><path class="cls-8" d="M156.92,827.32s-12,16.52,5.58,37.36,29.66,65.16,29.66,65.16-6.5,6-10.14,3.33l-3.64-2.65s2.31-4-2.65-8.6-18.86-11.58-20.18-28.12-8.93-11.25-16.54-22.5-11.35-31.56,0-40.36S156.92,827.32,156.92,827.32Z"/></g><g id="laptop"><path class="cls-26" d="M166.3,1030.44H61.93a4.75,4.75,0,0,0-3.6,7.85c6.56,7.59,16.33,18.57,21.62,22.92,8.43,7,48.63,4.47,48.63,4.47Z"/><path class="cls-5" d="M66,935.44c.91,10.56,2.39,27.64,4,45.1,1.24,13.75,2.53,27.76,3.65,39,1,9.89,1.84,17.66,2.38,21.31,2.33,15.27,13.07,26.66,31.1,29.73,1.31.22,2.65.4,4,.54,7.57.73,25.94.92,46.73.87,10.08,0,20.74-.11,31-.21,25.76-.26,49.08-.66,54.88-.66,8.45,0,18.4-2.77,25.09-11.23,3.52-4.46,6.14-10.5,7.17-18.55.49-3.83,1.18-9.55,2-16.44,1.35-11.43,3-26.05,4.68-40.57.86-7.53,1.71-15,2.51-22.05,1-9.34,2-17.81,2.73-24.33.1-.79.18-1.55.26-2.27a9.86,9.86,0,0,0-9.8-11H75.8A9.86,9.86,0,0,0,66,935.44Z"/><path class="cls-7" d="M107.07,1070.6c-11-17.24-20.72-35.72-33.48-51"/><path class="cls-7" d="M157.83,1072c-1.24-1.33-2.51-2.63-3.79-3.9-25.28-25.42-52.35-49.17-75.37-76.66-3-3.55-5.9-7.2-8.73-10.91"/><path class="cls-7" d="M268.81,1059.91c-33.52-38.84-79.14-66.84-116.23-102.94-9.57-9.33-18.93-20-23.52-32.23"/><path class="cls-7" d="M282.65,984.35c-18.48-14.17-40-23.93-58.88-37.57a118,118,0,0,1-23.49-22"/><path class="cls-7" d="M278,1024.92c-3.28-3.53-6.36-7.23-9.24-10.81a1063.1,1063.1,0,0,0-80.21-89.37"/><path class="cls-7" d="M285.16,962.3c-9.77-12.15-18.77-25.14-28.38-37.56"/><path class="cls-7" d="M274.25,924.74c4.23,4.64,8.95,9,13.64,13.23"/><path class="cls-7" d="M188.84,1071.8c-14.44-15.47-26.59-33.57-36.75-52.06-17-30.94-30-64.07-46.83-95"/></g><rect class="cls-33" x="275.87" y="776.51" width="152.86" height="96.94" rx="20.65"/><line class="cls-7" x1="428.73" y1="790.79" x2="275.87" y2="790.79"/><path class="cls-34" d="M282.18,800.22h16.56a0,0,0,0,1,0,0v8.28a8.28,8.28,0,0,1-8.28,8.28h0a8.28,8.28,0,0,1-8.28-8.28v-8.28A0,0,0,0,1,282.18,800.22Z"/><path class="cls-34" d="M306.71,800.22h16.56a0,0,0,0,1,0,0v8.28a8.28,8.28,0,0,1-8.28,8.28h0a8.28,8.28,0,0,1-8.28-8.28v-8.28A0,0,0,0,1,306.71,800.22Z"/><path class="cls-34" d="M331.71,800.22h16.56a0,0,0,0,1,0,0v8.28a8.28,8.28,0,0,1-8.28,8.28h0a8.28,8.28,0,0,1-8.28-8.28v-8.28A0,0,0,0,1,331.71,800.22Z"/><path class="cls-34" d="M357.12,800.22h16.56a0,0,0,0,1,0,0v8.28a8.28,8.28,0,0,1-8.28,8.28h0a8.28,8.28,0,0,1-8.28-8.28v-8.28a0,0,0,0,1,0,0Z"/><path class="cls-34" d="M382.71,800.22h16.56a0,0,0,0,1,0,0v8.28a8.28,8.28,0,0,1-8.28,8.28h0a8.28,8.28,0,0,1-8.28-8.28v-8.28A0,0,0,0,1,382.71,800.22Z"/><path class="cls-34" d="M405.86,800.22h16.56a0,0,0,0,1,0,0v8.28a8.28,8.28,0,0,1-8.28,8.28h0a8.28,8.28,0,0,1-8.28-8.28v-8.28a0,0,0,0,1,0,0Z"/><path class="cls-34" d="M282.18,823.77h16.56a0,0,0,0,1,0,0v8.28a8.28,8.28,0,0,1-8.28,8.28h0a8.28,8.28,0,0,1-8.28-8.28v-8.28A0,0,0,0,1,282.18,823.77Z"/><path class="cls-34" d="M306.71,823.77h16.56a0,0,0,0,1,0,0v8.28a8.28,8.28,0,0,1-8.28,8.28h0a8.28,8.28,0,0,1-8.28-8.28v-8.28a0,0,0,0,1,0,0Z"/><path class="cls-34" d="M331.71,823.77h16.56a0,0,0,0,1,0,0v8.28a8.28,8.28,0,0,1-8.28,8.28h0a8.28,8.28,0,0,1-8.28-8.28v-8.28A0,0,0,0,1,331.71,823.77Z"/><path class="cls-34" d="M357.12,823.77h16.56a0,0,0,0,1,0,0v8.28a8.28,8.28,0,0,1-8.28,8.28h0a8.28,8.28,0,0,1-8.28-8.28v-8.28a0,0,0,0,1,0,0Z"/><path class="cls-34" d="M382.71,823.77h16.56a0,0,0,0,1,0,0v8.28a8.28,8.28,0,0,1-8.28,8.28h0a8.28,8.28,0,0,1-8.28-8.28v-8.28a0,0,0,0,1,0,0Z"/><path class="cls-34" d="M405.86,823.77h16.56a0,0,0,0,1,0,0v8.28a8.28,8.28,0,0,1-8.28,8.28h0a8.28,8.28,0,0,1-8.28-8.28v-8.28A0,0,0,0,1,405.86,823.77Z"/><path class="cls-34" d="M282.18,847.32h16.56a0,0,0,0,1,0,0v8.28a8.28,8.28,0,0,1-8.28,8.28h0a8.28,8.28,0,0,1-8.28-8.28v-8.28A0,0,0,0,1,282.18,847.32Z"/><path class="cls-34" d="M306.71,847.32h16.56a0,0,0,0,1,0,0v8.28a8.28,8.28,0,0,1-8.28,8.28h0a8.28,8.28,0,0,1-8.28-8.28v-8.28a0,0,0,0,1,0,0Z"/><path class="cls-34" d="M331.71,847.32h16.56a0,0,0,0,1,0,0v8.28a8.28,8.28,0,0,1-8.28,8.28h0a8.28,8.28,0,0,1-8.28-8.28v-8.28a0,0,0,0,1,0,0Z"/><path class="cls-34" d="M357.12,847.32h16.56a0,0,0,0,1,0,0v8.28a8.28,8.28,0,0,1-8.28,8.28h0a8.28,8.28,0,0,1-8.28-8.28v-8.28A0,0,0,0,1,357.12,847.32Z"/><path class="cls-34" d="M382.71,847.32h16.56a0,0,0,0,1,0,0v8.28a8.28,8.28,0,0,1-8.28,8.28h0a8.28,8.28,0,0,1-8.28-8.28v-8.28A0,0,0,0,1,382.71,847.32Z"/><path class="cls-34" d="M405.86,847.32h16.56a0,0,0,0,1,0,0v8.28a8.28,8.28,0,0,1-8.28,8.28h0a8.28,8.28,0,0,1-8.28-8.28v-8.28A0,0,0,0,1,405.86,847.32Z"/><rect class="cls-34" x="282.18" y="781.37" width="16.56" height="4.56" rx="2.28"/><rect class="cls-34" x="405.86" y="781.37" width="16.56" height="4.56" rx="2.28"/><circle class="cls-34" cx="342.27" cy="783.65" r="2.28"/><circle class="cls-34" cx="354.58" cy="783.65" r="2.28"/><circle class="cls-34" cx="365.4" cy="783.65" r="2.28"/><polyline class="cls-35" points="285.59 808.28 290.15 811.24 295.93 803.33"/><polyline class="cls-35" points="310.13 808.28 314.69 811.24 320.46 803.33"/><polyline class="cls-35" points="334.52 808.28 339.08 811.24 344.86 803.33"/><polyline class="cls-35" points="285.36 833.05 289.92 836 295.69 828.1"/><polyline class="cls-35" points="309.9 833.05 314.46 836 320.23 828.1"/><polyline class="cls-35" points="334.29 833.05 338.85 836 344.62 828.1"/><polyline class="cls-35" points="360.02 808.28 364.58 811.24 370.35 803.33"/><polyline class="cls-35" points="385.52 808.28 390.08 811.24 395.85 803.33"/><polyline class="cls-35" points="408.67 808.28 413.23 811.24 419 803.33"/></g><path class="cls-2" d="M759.53,482.65l7.35,12L772.67,474a75.07,75.07,0,0,1,23.51-.53"/><path class="cls-2" d="M778.69,483l9.24,11.12"/><path class="cls-2" d="M787.09,485.14l-11.17,11.65"/><path class="cls-2" d="M806.72,482.88c1.06-4,6.14-5.55,10.25-4.92s7.91,2.7,12,3.1c10.22,1,20.62-8.26,29.93-3.92,3.55,1.64,6.13,5.05,9.83,6.28,4.78,1.59,9.84-.83,14.58-2.53a52.78,52.78,0,0,1,34.15-.42c8.11,2.69,17.15,7.32,24.59,3.12"/><path class="cls-2" d="M851.45,506.32a11.67,11.67,0,0,1,12.44-4.53c4.69,1.3,8.17,5.49,12.87,6.79,7.7,2.13,15-4,22.81-5.83,8-1.86,16.2.93,24.24,2.55s17.48,1.61,23.12-4.33"/><path class="cls-2" d="M865.94,529.69A30,30,0,0,0,875.36,540"/><path class="cls-2" d="M897.6,534.54l17.81-2.22"/><path class="cls-2" d="M905.25,527.17v17.76"/><path class="cls-2" d="M878.75,534.63l-9.11,16.18"/><path class="cls-2" d="M924.21,529.18a65.59,65.59,0,0,1,17,15.93"/><path class="cls-2" d="M939,528.7q-8,10-15.86,20.16"/><ellipse class="cls-4" cx="545.4" cy="917.76" rx="35.93" ry="21.21" transform="translate(-510.98 1072.01) rotate(-67.59)"/><path class="cls-22" d="M565.34,888.82a13,13,0,0,0-1.9-1.42l-.54-.4,0,.08a12.72,12.72,0,0,0-1.23-.6C551,882.08,536.32,893,528.92,911s-4.72,36,6,40.42a12.5,12.5,0,0,0,1.3.45l0,.07,70.7,13.18a19.17,19.17,0,0,0,21.23-11.53h0a19.16,19.16,0,0,0-6.27-22.67Z"/><path class="cls-22" d="M875.94,132.33a12.69,12.69,0,0,0-2.18.91l-.62.25.05.07a12.45,12.45,0,0,0-1.14.75c-9.25,6.93-7.32,25.12,4.31,40.63s28.54,22.48,37.79,15.56c.36-.28.71-.58,1-.89l0,.07,47.46-54a19.18,19.18,0,0,0,.94-24.14h0a19.17,19.17,0,0,0-22.69-6.2Z"/><ellipse class="cls-4" cx="890.78" cy="164.14" rx="21.21" ry="35.93" transform="matrix(0.8, -0.6, 0.6, 0.8, 79.49, 566.92)"/></svg>