<svg width="32" height="32" viewBox="0 0 32 32" fill="none" xmlns="http://www.w3.org/2000/svg">
<rect width="32" height="32" fill="white"/>
<path d="M3.94 13H5.24V18.9H8.9V20H3.94V13ZM15.0152 18.38H11.5152L10.8252 20H9.48516L12.6352 13H13.9152L17.0752 20H15.7152L15.0152 18.38ZM14.5852 17.36L13.2652 14.3L11.9552 17.36H14.5852ZM19.0774 20.07C18.8508 20.07 18.6574 19.9933 18.4974 19.84C18.3374 19.68 18.2574 19.48 18.2574 19.24C18.2574 18.9933 18.3341 18.7933 18.4874 18.64C18.6474 18.4867 18.8441 18.41 19.0774 18.41C19.3108 18.41 19.5041 18.4867 19.6574 18.64C19.8174 18.7933 19.8974 18.9933 19.8974 19.24C19.8974 19.48 19.8174 19.68 19.6574 19.84C19.4974 19.9933 19.3041 20.07 19.0774 20.07ZM21.7388 13H24.7988C25.5455 13 26.2088 13.1467 26.7888 13.44C27.3688 13.7267 27.8188 14.1367 28.1388 14.67C28.4588 15.1967 28.6188 15.8067 28.6188 16.5C28.6188 17.1933 28.4588 17.8067 28.1388 18.34C27.8188 18.8667 27.3688 19.2767 26.7888 19.57C26.2088 19.8567 25.5455 20 24.7988 20H21.7388V13ZM24.7388 18.9C25.2522 18.9 25.7022 18.8033 26.0888 18.61C26.4822 18.41 26.7822 18.13 26.9888 17.77C27.2022 17.4033 27.3088 16.98 27.3088 16.5C27.3088 16.02 27.2022 15.6 26.9888 15.24C26.7822 14.8733 26.4822 14.5933 26.0888 14.4C25.7022 14.2 25.2522 14.1 24.7388 14.1H23.0388V18.9H24.7388Z" fill="black"/>
</svg>
