<svg width="842" height="214" viewBox="0 0 842 214" fill="none" xmlns="http://www.w3.org/2000/svg">
<path d="M72.28 66H87.88V136.8H131.8V150H72.28V66ZM205.182 130.56H163.182L154.902 150H138.822L176.622 66H191.982L229.902 150H213.582L205.182 130.56ZM200.022 118.32L184.182 81.6L168.462 118.32H200.022ZM253.929 150.84C251.209 150.84 248.889 149.92 246.969 148.08C245.049 146.16 244.089 143.76 244.089 140.88C244.089 137.92 245.009 135.52 246.849 133.68C248.769 131.84 251.129 130.92 253.929 130.92C256.729 130.92 259.049 131.84 260.889 133.68C262.809 135.52 263.769 137.92 263.769 140.88C263.769 143.76 262.809 146.16 260.889 148.08C258.969 149.92 256.649 150.84 253.929 150.84ZM285.866 66H322.586C331.546 66 339.506 67.76 346.466 71.28C353.426 74.72 358.826 79.64 362.666 86.04C366.506 92.36 368.426 99.68 368.426 108C368.426 116.32 366.506 123.68 362.666 130.08C358.826 136.4 353.426 141.32 346.466 144.84C339.506 148.28 331.546 150 322.586 150H285.866V66ZM321.866 136.8C328.026 136.8 333.426 135.64 338.066 133.32C342.786 130.92 346.386 127.56 348.866 123.24C351.426 118.84 352.706 113.76 352.706 108C352.706 102.24 351.426 97.2 348.866 92.88C346.386 88.48 342.786 85.12 338.066 82.8C333.426 80.4 328.026 79.2 321.866 79.2H301.466V136.8H321.866ZM454.007 136.92V150H391.007V66H452.327V79.08H406.607V100.92H447.167V113.76H406.607V136.92H454.007ZM503.437 151.2C496.957 151.2 490.677 150.28 484.597 148.44C478.597 146.6 473.837 144.16 470.317 141.12L475.717 129C479.157 131.72 483.357 133.96 488.317 135.72C493.357 137.4 498.397 138.24 503.437 138.24C509.677 138.24 514.317 137.24 517.357 135.24C520.477 133.24 522.037 130.6 522.037 127.32C522.037 124.92 521.157 122.96 519.397 121.44C517.717 119.84 515.557 118.6 512.917 117.72C510.277 116.84 506.677 115.84 502.117 114.72C495.717 113.2 490.517 111.68 486.517 110.16C482.597 108.64 479.197 106.28 476.317 103.08C473.517 99.8 472.117 95.4 472.117 89.88C472.117 85.24 473.357 81.04 475.837 77.28C478.397 73.44 482.197 70.4 487.237 68.16C492.357 65.92 498.597 64.8 505.957 64.8C511.077 64.8 516.117 65.44 521.077 66.72C526.037 68 530.317 69.84 533.917 72.24L528.997 84.36C525.317 82.2 521.477 80.56 517.477 79.44C513.477 78.32 509.597 77.76 505.837 77.76C499.677 77.76 495.077 78.8 492.037 80.88C489.077 82.96 487.597 85.72 487.597 89.16C487.597 91.56 488.437 93.52 490.117 95.04C491.877 96.56 494.077 97.76 496.717 98.64C499.357 99.52 502.957 100.52 507.517 101.64C513.757 103.08 518.877 104.6 522.877 106.2C526.877 107.72 530.277 110.08 533.077 113.28C535.957 116.48 537.397 120.8 537.397 126.24C537.397 130.88 536.117 135.08 533.557 138.84C531.077 142.6 527.277 145.6 522.157 147.84C517.037 150.08 510.797 151.2 503.437 151.2ZM558.866 66H574.466V150H558.866V66ZM660.546 107.04H675.306V140.52C670.986 143.96 665.946 146.6 660.186 148.44C654.426 150.28 648.506 151.2 642.426 151.2C633.866 151.2 626.146 149.36 619.266 145.68C612.386 141.92 606.986 136.76 603.066 130.2C599.146 123.64 597.186 116.24 597.186 108C597.186 99.76 599.146 92.36 603.066 85.8C606.986 79.24 612.386 74.12 619.266 70.44C626.226 66.68 634.026 64.8 642.666 64.8C649.706 64.8 656.106 65.96 661.866 68.28C667.626 70.6 672.466 74 676.386 78.48L666.546 88.08C660.146 81.68 652.426 78.48 643.386 78.48C637.466 78.48 632.186 79.72 627.546 82.2C622.986 84.68 619.386 88.16 616.746 92.64C614.186 97.12 612.906 102.24 612.906 108C612.906 113.6 614.186 118.64 616.746 123.12C619.386 127.6 622.986 131.12 627.546 133.68C632.186 136.24 637.426 137.52 643.266 137.52C649.826 137.52 655.586 136.08 660.546 133.2V107.04ZM776.522 66V150H763.682L717.362 93.12V150H701.882V66H714.722L761.042 122.88V66H776.522Z" fill="black"/>
</svg>
