<svg width="256" height="256" viewBox="0 0 256 256" fill="none" xmlns="http://www.w3.org/2000/svg">
<rect width="256" height="256" fill="white"/>
<path d="M19.46 97H31.16V150.1H64.1V160H19.46V97ZM119.136 145.42H87.6364L81.4264 160H69.3664L97.7164 97H109.236L137.676 160H125.436L119.136 145.42ZM115.266 136.24L103.386 108.7L91.5964 136.24H115.266ZM155.697 160.63C153.657 160.63 151.917 159.94 150.477 158.56C149.037 157.12 148.317 155.32 148.317 153.16C148.317 150.94 149.007 149.14 150.387 147.76C151.827 146.38 153.597 145.69 155.697 145.69C157.797 145.69 159.537 146.38 160.917 147.76C162.357 149.14 163.077 150.94 163.077 153.16C163.077 155.32 162.357 157.12 160.917 158.56C159.477 159.94 157.737 160.63 155.697 160.63ZM179.649 97H207.189C213.909 97 219.879 98.32 225.099 100.96C230.319 103.54 234.369 107.23 237.249 112.03C240.129 116.77 241.569 122.26 241.569 128.5C241.569 134.74 240.129 140.26 237.249 145.06C234.369 149.8 230.319 153.49 225.099 156.13C219.879 158.71 213.909 160 207.189 160H179.649V97ZM206.649 150.1C211.269 150.1 215.319 149.23 218.799 147.49C222.339 145.69 225.039 143.17 226.899 139.93C228.819 136.63 229.779 132.82 229.779 128.5C229.779 124.18 228.819 120.4 226.899 117.16C225.039 113.86 222.339 111.34 218.799 109.6C215.319 107.8 211.269 106.9 206.649 106.9H191.349V150.1H206.649Z" fill="black"/>
</svg>
